# xmcd
#
# Track frame offsets: 
#        150
#        27624
#        53513
#        75672
#        94791
#        117848
#        139378
#        159997
#        180783
#        203954
#        226029
#        249490
#        270806
#        291787
#        311591
#        332450
#
# Disc length: 4768 seconds
#
# Revision: 2
# Processed by: cddbd v1.5.1PL0 Copyright (c) Steve Scherf et al.
# Submitted via: ExactAudioCopy v0.95a5
#
DISCID=c8129e10
DTITLE=varios - Noches Latinas
DYEAR=2003
DGENRE=Salsa
TTITLE0=Un montón de estrellas
TTITLE1=Usted
TTITLE2=Herida
TTITLE3=Dama elegante
TTITLE4=Juguete de nadie
TTITLE5=Una y mil veces
TTITLE6=Mala, mala
TTITLE7=Solo, solito
TTITLE8=Porque te amo
TTITLE9=Derroche
TTITLE10=Si supieras
TTITLE11=Ganas de ti
TTITLE12=Ganas
TTITLE13=No puede ser
TTITLE14=Te propongo
TTITLE15=Te necesito mi amor
EXTD=
EXTT0=
EXTT1=
EXTT2=
EXTT3=
EXTT4=
EXTT5=
EXTT6=
EXTT7=
EXTT8=
EXTT9=
EXTT10=
EXTT11=
EXTT12=
EXTT13=
EXTT14=
EXTT15=
PLAYORDER=
